# Blender v3.0.1 OBJ File: 'door.blend'
# www.blender.org
mtllib door.mtl
o Cube
v 0.270775 7.109302 -2.654258
v 0.270775 -0.597619 -2.654258
v 0.270775 7.109302 2.654258
v 0.270775 -0.597619 2.654258
v -0.270775 7.109302 -2.654258
v -0.270775 -0.597619 -2.654258
v -0.270775 7.109302 2.654258
v -0.270775 -0.597619 2.654258
v -0.270775 -0.597619 0.000000
v -0.154519 7.109302 1.010775
v -0.270775 7.109302 0.000000
v -0.154519 -0.597619 -1.028949
v 0.270775 3.255841 -2.654258
v -0.270775 3.255841 2.654258
v 0.270775 3.255841 2.654258
v -0.270775 3.255841 -2.654258
v -0.154519 3.255841 0.000000
v -0.270775 3.255841 0.000000
v -0.270775 5.182571 2.654258
v 0.270775 5.182571 -2.654258
v 0.270775 5.182571 2.654258
v -0.270775 5.182571 -2.654258
v -0.154519 5.182571 0.994812
v -0.270775 5.182571 0.000000
v 0.270775 1.329111 -2.654258
v 0.270775 1.329111 2.654258
v -0.270775 1.329111 -2.654258
v -0.154519 1.329111 -1.036339
v -0.270775 1.329111 0.000000
v -0.270775 1.329111 2.654258
v -0.270775 7.109302 -0.168959
v -0.127447 -0.597619 -1.245531
v -0.270775 -0.597619 -0.168959
v -0.127447 7.109302 0.777475
v -0.127447 3.255841 -0.190797
v -0.270775 3.255841 -0.168959
v -0.127447 5.182571 0.762528
v -0.270775 5.182571 -0.168959
v -0.270775 1.329111 -0.168959
v -0.127447 1.329111 -1.252345
v 0.229541 7.109302 0.777475
v 0.202469 7.109302 1.010775
v 0.202469 1.329111 -1.036339
v 0.202469 -0.597619 -1.028949
v 0.202469 5.182571 0.994812
v 0.202469 3.255841 0.000000
v 0.229541 3.255841 -0.190797
v 0.229541 5.182571 0.762528
v 0.229541 1.329111 -1.252345
v 0.229541 -0.597619 -1.245531
v -0.327604 5.586943 2.864432
v -0.327604 7.850047 2.864432
v 0.327604 0.924739 2.864432
v 0.327604 -1.406363 2.864432
v 0.327604 7.850047 2.864432
v -0.327604 -1.406363 2.864432
v -0.327604 0.924739 2.864432
v -0.327604 3.255841 2.864432
v 0.327604 5.586943 2.864432
v 0.327604 3.255841 2.864432
v 0.325623 -1.378170 -2.883023
v -0.325623 -1.378170 -2.883023
v 0.325623 0.938835 -2.883023
v -0.325623 0.938835 -2.883023
v -0.325623 7.848288 -2.883023
v 0.325623 7.889853 -2.883023
v 0.325623 5.572847 -2.883023
v 0.325623 3.255841 -2.883023
v -0.325623 5.572847 -2.883023
v -0.325623 3.255841 -2.883023
v 0.324401 7.853452 2.877480
v -0.314985 7.853452 2.877480
v -0.154519 7.853452 1.010775
v -0.270775 7.853452 -0.168959
v -0.331487 7.853452 -2.889043
v 0.312971 7.853452 -2.864697
v -0.270775 7.853452 0.000000
v -0.127447 7.853452 0.777475
v 0.556310 1.328709 -2.660424
v 0.556310 -0.598021 -2.660424
v 0.556310 1.328709 2.648093
v 0.556310 -0.598021 2.648093
v 0.131015 7.108900 1.004610
v 0.556310 7.108900 2.648093
v 0.014760 7.108900 -0.006165
v 0.556310 5.182169 -2.660424
v 0.556310 3.255439 -2.660424
v 0.556310 5.182169 2.648093
v 0.556310 3.255439 2.648093
v 0.611157 5.572445 -2.889188
v 0.556310 7.108900 -2.660424
v 0.611157 0.938433 -2.889188
v 0.613138 7.849645 2.858267
v 0.611157 -1.378572 -2.889188
v 0.158088 7.108900 0.771310
v 0.613138 0.924337 2.858267
v 0.613138 -1.406765 2.858267
v 0.613138 5.586541 2.858267
v 0.613138 3.255439 2.858267
v 0.611157 3.255439 -2.889188
v 0.611157 7.889452 -2.889188
v 0.131015 7.853051 1.004610
v 0.609935 7.853051 2.871314
v 0.014760 7.853051 -0.006165
v 0.598506 7.853051 -2.870862
v 0.158088 7.853051 0.771310
vt 0.437500 0.750000
vt 0.375000 0.750000
vt 0.375000 0.750000
vt 0.437500 0.750000
vt 0.625000 0.625000
vt 0.625000 0.750000
vt 0.625000 0.750000
vt 0.625000 0.625000
vt 0.562500 0.132957
vt 0.625000 0.132957
vt 0.625000 0.250000
vt 0.562500 0.250000
vt 0.125000 0.625000
vt 0.375000 0.625000
vt 0.375000 0.750000
vt 0.125000 0.750000
vt 0.562500 0.625000
vt 0.625000 0.625000
vt 0.625000 0.750000
vt 0.562500 0.750000
vt 0.625000 0.750000
vt 0.625000 0.750000
vt 0.625000 0.750000
vt 0.375000 0.617043
vt 0.375000 0.617043
vt 0.375000 0.625000
vt 0.125000 0.617043
vt 0.562500 0.000000
vt 0.625000 0.000000
vt 0.625000 0.125000
vt 0.562500 0.125000
vt 0.625000 0.617043
vt 0.875000 0.617043
vt 0.875000 0.625000
vt 0.437500 0.000000
vt 0.500000 0.000000
vt 0.500000 0.125000
vt 0.437500 0.125000
vt 0.562500 0.617043
vt 0.625000 0.617043
vt 0.562500 0.617043
vt 0.500000 0.250000
vt 0.562500 0.250000
vt 0.500000 0.250000
vt 0.437500 0.625000
vt 0.500000 0.625000
vt 0.500000 0.750000
vt 0.437500 0.750000
vt 0.437500 0.132957
vt 0.500000 0.132957
vt 0.437500 0.250000
vt 0.625000 0.500000
vt 0.625000 0.500000
vt 0.625000 0.500000
vt 0.625000 0.500000
vt 0.437500 0.625000
vt 0.562500 0.500000
vt 0.625000 0.500000
vt 0.625000 0.500000
vt 0.562500 0.500000
vt 0.562500 0.000000
vt 0.625000 0.000000
vt 0.875000 0.750000
vt 0.875000 0.750000
vt 0.375000 0.132957
vt 0.375000 0.250000
vt 0.437500 0.500000
vt 0.375000 0.500000
vt 0.375000 0.500000
vt 0.437500 0.500000
vt 0.562500 0.625000
vt 0.625000 0.625000
vt 0.375000 0.000000
vt 0.375000 0.125000
vt 0.437500 0.617043
vt 0.500000 0.500000
vt 0.562500 0.500000
vt 0.500000 0.617043
vt 0.625000 0.132957
vt 0.625000 0.250000
vt 0.125000 0.500000
vt 0.437500 0.617043
vt 0.500000 0.617043
vt 0.500000 0.625000
vt 0.562500 0.750000
vt 0.625000 1.000000
vt 0.562500 1.000000
vt 0.500000 0.750000
vt 0.500000 1.000000
vt 0.437500 1.000000
vt 0.375000 1.000000
vt 0.437500 0.000000
vt 0.500000 0.000000
vt 0.625000 0.125000
vt 0.625000 0.125000
vt 0.625000 0.125000
vt 0.125000 0.750000
vt 0.375000 0.000000
vt 0.625000 0.250000
vt 0.437500 0.250000
vt 0.500000 0.500000
vt 0.437500 0.500000
vt 0.375000 0.250000
vt 0.375000 0.500000
vt 0.375000 0.500000
vt 0.875000 0.500000
vt 0.875000 0.500000
vt 0.125000 0.500000
vt 0.875000 0.625000
vt 0.875000 0.750000
vt 0.875000 0.500000
vt 0.875000 0.617043
vt 0.625000 0.617043
vt 0.625000 0.000000
vt 0.500000 0.500000
vt 0.500000 0.750000
vt 0.625000 0.625000
vt 0.375000 0.750000
vt 0.437500 0.750000
vt 0.562500 0.500000
vt 0.500000 0.500000
vt 0.562500 0.750000
vt 0.562500 0.750000
vt 0.437500 0.500000
vt 0.500000 0.750000
vt 0.875000 0.625000
vt 0.875000 0.625000
vt 0.625000 0.617043
vt 0.625000 0.617043
vn 0.0216 0.0000 0.9998
vn 0.0014 1.0000 -0.0004
vn -1.0000 0.0000 0.0000
vn 0.0000 -1.0000 -0.0000
vn 0.9684 0.0010 -0.2494
vn -0.0204 0.2743 -0.9614
vn 0.0000 1.0000 0.0000
vn 0.0000 0.0078 -1.0000
vn -0.9724 0.0000 0.2331
vn 0.9905 0.0357 -0.1328
vn -0.0212 -0.2709 -0.9624
vn 0.0000 0.0038 1.0000
vn -0.0216 0.0000 -0.9998
vn 0.9799 0.0499 -0.1932
vn -0.9653 0.0000 -0.2610
vn 0.0000 0.2730 -0.9620
vn 0.9934 -0.0002 -0.1146
vn 0.0000 -0.0083 1.0000
vn 0.9621 0.0005 0.2726
vn 0.9904 -0.0332 0.1341
vn 0.9779 -0.0555 0.2015
vn -0.9992 -0.0389 0.0117
vn 0.9933 -0.0004 0.1155
vn 0.9933 -0.0009 0.1155
vn 0.9887 -0.0716 0.1316
vn 0.9899 -0.0640 0.1267
vn 0.9923 0.0005 0.1242
vn 0.0000 -0.4737 0.8807
vn 0.0000 0.4826 -0.8759
vn 0.0000 -0.4588 0.8886
vn 0.0000 0.4435 -0.8963
vn 0.0000 -0.0035 -1.0000
vn 0.0000 0.0000 1.0000
vn 0.0000 -0.2515 -0.9679
vn 0.0203 -0.2886 0.9572
vn -0.0000 0.0000 -1.0000
vn 0.0203 -0.2799 0.9598
vn -0.0100 0.2883 0.9575
vn 0.0000 -0.2813 0.9596
vn -0.9996 -0.0285 -0.0080
vn 0.0197 -0.2863 -0.9579
vn -0.9887 0.0000 0.1497
vn 0.0000 -0.2873 0.9578
vn 0.9684 0.0025 -0.2495
vn 0.9653 0.0000 -0.2610
vn 0.9724 0.0000 0.2331
vn 0.9935 0.0000 -0.1143
vn 0.9930 -0.0115 0.1177
vn -0.0212 -0.2529 -0.9673
vn -0.0014 -1.0000 -0.0002
vn -0.0014 -1.0000 0.0002
vn -0.0014 -1.0000 0.0004
vn 0.0014 1.0000 -0.0002
vn 0.0014 1.0000 0.0002
vn 0.0211 0.2798 0.9598
usemtl Material
s off
f 53/1/1 54/2/1 97/3/1 96/4/1
f 73/5/2 71/6/2 103/7/2 102/8/2
f 38/9/3 31/10/3 5/11/3 22/12/3
f 9/13/4 12/14/4 4/15/4 8/16/4
f 23/17/5 10/18/5 3/19/5 21/20/5
f 3/19/6 55/21/6 93/22/6 84/23/6
f 12/14/4 32/24/4 50/25/4 44/26/4
f 33/27/4 32/24/4 12/14/4 9/13/4
f 19/28/3 7/29/3 11/30/3 24/31/3
f 34/32/7 31/33/7 11/34/7 10/18/7
f 30/35/3 14/36/3 18/37/3 29/38/3
f 37/39/8 34/32/8 41/40/8 48/41/8
f 16/42/9 22/12/9 69/43/9 70/44/9
f 28/45/10 17/46/10 15/47/10 26/48/10
f 39/49/3 36/50/3 16/42/3 27/51/3
f 1/52/11 76/53/11 105/54/11 91/55/11
f 14/36/3 19/28/3 24/31/3 18/37/3
f 28/45/12 12/14/12 44/26/12 43/56/12
f 67/57/13 66/58/13 101/59/13 90/60/13
f 17/46/14 23/17/14 21/20/14 15/47/14
f 36/50/3 38/9/3 22/12/3 16/42/3
f 7/29/15 19/28/15 51/61/15 52/62/15
f 3/19/16 7/63/16 52/64/16 55/21/16
f 33/65/3 39/49/3 27/51/3 6/66/3
f 12/14/17 28/45/17 26/48/17 4/15/17
f 25/67/1 2/68/1 80/69/1 79/70/1
f 10/18/18 23/17/18 45/71/18 42/72/18
f 8/73/3 30/35/3 29/38/3 9/74/3
f 2/68/19 25/67/19 40/75/19 32/24/19
f 9/74/3 29/38/3 39/49/3 33/65/3
f 18/37/3 24/31/3 38/9/3 36/50/3
f 13/76/20 20/77/20 37/39/20 35/78/20
f 29/38/3 18/37/3 36/50/3 39/49/3
f 25/67/21 13/76/21 35/78/21 40/75/21
f 5/11/22 31/10/22 74/79/22 75/80/22
f 6/81/4 2/68/4 32/24/4 33/27/4
f 20/77/23 1/52/23 34/32/23 37/39/23
f 24/31/3 11/30/3 31/10/3 38/9/3
f 48/41/24 41/40/24 42/72/24 45/71/24
f 49/82/25 47/83/25 46/84/25 43/56/25
f 47/83/26 48/41/26 45/71/26 46/84/26
f 50/25/27 49/82/27 43/56/27 44/26/27
f 34/32/7 10/18/7 42/72/7 41/40/7
f 17/46/28 28/45/28 43/56/28 46/84/28
f 40/75/29 35/78/29 47/83/29 49/82/29
f 23/17/30 17/46/30 46/84/30 45/71/30
f 35/78/31 37/39/31 48/41/31 47/83/31
f 32/24/32 40/75/32 49/82/32 50/25/32
f 59/85/33 55/21/33 52/86/33 51/87/33
f 53/1/33 60/88/33 58/89/33 57/90/33
f 60/88/33 59/85/33 51/87/33 58/89/33
f 54/2/33 53/1/33 57/90/33 56/91/33
f 14/36/15 30/35/15 57/92/15 58/93/15
f 11/30/13 77/94/13 104/95/13 85/96/13
f 8/16/34 4/15/34 54/2/34 56/97/34
f 30/35/15 8/73/15 56/98/15 57/92/15
f 19/28/15 14/36/15 58/93/15 51/61/15
f 71/6/35 3/19/35 84/23/35 103/7/35
f 69/43/36 65/99/36 66/58/36 67/57/36
f 64/100/36 70/44/36 68/101/36 63/102/36
f 70/44/36 69/43/36 67/57/36 68/101/36
f 62/103/36 64/100/36 63/102/36 61/104/36
f 2/68/37 61/104/37 94/105/37 80/69/37
f 5/106/38 1/52/38 66/58/38 65/107/38
f 22/12/9 5/11/9 65/99/9 69/43/9
f 2/68/39 6/81/39 62/108/39 61/104/39
f 6/66/9 27/51/9 64/100/9 62/103/9
f 27/51/9 16/42/9 70/44/9 64/100/9
f 73/5/7 77/109/7 72/110/7 71/6/7
f 76/53/7 75/111/7 74/112/7 78/113/7
f 11/30/40 7/29/40 72/114/40 77/94/40
f 1/52/41 5/106/41 75/111/41 76/53/41
f 68/101/13 67/57/13 90/60/13 100/115/13
f 31/33/42 34/32/42 78/113/42 74/112/42
f 7/63/43 3/19/43 71/6/43 72/110/43
f 60/88/1 53/1/1 96/4/1 99/116/1
f 84/23/44 83/117/44 102/8/44 103/7/44
f 82/118/45 81/119/45 96/4/45 97/3/45
f 86/120/46 87/121/46 100/115/46 90/60/46
f 88/122/45 84/23/45 93/22/45 98/123/45
f 91/55/46 86/120/46 90/60/46 101/59/46
f 79/70/46 80/69/46 94/105/46 92/124/46
f 81/119/45 89/125/45 99/116/45 96/4/45
f 89/125/45 88/122/45 98/123/45 99/116/45
f 87/121/46 79/70/46 92/124/46 100/115/46
f 83/117/47 85/126/47 104/127/47 102/8/47
f 95/128/48 91/55/48 105/54/48 106/129/48
f 78/113/1 34/32/1 95/128/1 106/129/1
f 54/2/49 4/15/49 82/118/49 97/3/49
f 13/76/1 25/67/1 79/70/1 87/121/1
f 4/15/13 26/48/13 81/119/13 82/118/13
f 26/48/13 15/47/13 89/125/13 81/119/13
f 63/102/13 68/101/13 100/115/13 92/124/13
f 34/32/50 1/52/50 91/55/50 95/128/50
f 10/18/51 11/34/51 85/126/51 83/117/51
f 1/52/1 20/77/1 86/120/1 91/55/1
f 20/77/1 13/76/1 87/121/1 86/120/1
f 3/19/52 10/18/52 83/117/52 84/23/52
f 77/109/53 73/5/53 102/8/53 104/127/53
f 59/85/1 60/88/1 99/116/1 98/123/1
f 21/20/13 3/19/13 84/23/13 88/122/13
f 76/53/54 78/113/54 106/129/54 105/54/54
f 66/58/55 1/52/55 91/55/55 101/59/55
f 15/47/13 21/20/13 88/122/13 89/125/13
f 61/104/13 63/102/13 92/124/13 94/105/13
f 55/21/1 59/85/1 98/123/1 93/22/1
