# Blender v3.0.1 OBJ File: 'STPlumbob.blend'
# www.blender.org
mtllib STPlumbob.mtl
o Cube_Cube.001
v -1.174160 3.651929 -1.174160
v 0.000000 1.651929 -0.000000
v -1.174160 3.651929 1.174161
v 1.174160 3.651929 -1.174160
v 1.174160 3.651929 1.174161
vt 0.375000 0.000000
vt 0.625000 0.250000
vt 0.375000 0.250000
vt 0.625000 0.500000
vt 0.375000 0.500000
vt 0.625000 0.750000
vt 0.375000 0.750000
vt 0.625000 1.000000
vt 0.375000 1.000000
vt 0.125000 0.500000
vt 0.125000 0.750000
vn -0.8624 -0.5063 -0.0000
vn 0.0000 -0.5063 0.8624
vn 0.8624 -0.5063 -0.0000
vn 0.0000 -0.5063 -0.8624
vn 0.0000 1.0000 0.0000
usemtl None
s off
f 1/1/1 2/2/1 3/3/1
f 3/3/2 2/4/2 5/5/2
f 5/5/3 2/6/3 4/7/3
f 4/7/4 2/8/4 1/9/4
f 3/10/5 5/5/5 4/7/5 1/11/5
