# Blender v3.0.1 OBJ File: 'vent.blend'
# www.blender.org
mtllib vent.mtl
o Cube
v 0.424585 0.061723 -2.652273
v -0.424584 -0.163584 -2.877581
v 0.424585 0.061723 2.652273
v -0.424584 -0.163584 2.877581
v 0.424584 5.366269 -2.652273
v -0.424585 5.591577 -2.877581
v 0.424584 5.366269 2.652273
v -0.424585 5.591577 2.877581
v 0.424585 -0.163584 2.877581
v 0.424584 5.591577 2.877581
v 0.424585 -0.163584 -2.877581
v 0.424584 5.591577 -2.877581
v -0.196952 0.061723 2.652273
v -0.196953 5.366269 2.652273
v -0.196952 0.061723 -2.652273
v -0.196953 5.366269 -2.652273
v -0.169923 0.471223 2.635199
v -0.112890 0.570007 2.635199
v -0.169923 0.471223 -2.635199
v -0.112890 0.570007 -2.635199
v 0.495851 0.086838 2.635199
v 0.507272 0.084906 2.635199
v 0.495851 0.086838 -2.635199
v 0.507272 0.084906 -2.635199
v -0.169923 0.716015 2.635199
v -0.112890 0.814799 2.635199
v -0.169923 0.716015 -2.635199
v -0.112890 0.814799 -2.635199
v 0.495851 0.331630 2.635199
v 0.507272 0.329698 2.635199
v 0.495851 0.331630 -2.635199
v 0.507272 0.329698 -2.635199
v -0.169923 0.960608 2.635199
v -0.112890 1.059392 2.635199
v -0.169923 0.960608 -2.635199
v -0.112890 1.059392 -2.635199
v 0.495851 0.576223 2.635199
v 0.507272 0.574291 2.635199
v 0.495851 0.576223 -2.635199
v 0.507272 0.574291 -2.635199
v -0.169923 1.180317 2.635199
v -0.112890 1.279101 2.635199
v -0.169923 1.180317 -2.635199
v -0.112890 1.279101 -2.635199
v 0.495851 0.795932 2.635199
v 0.507272 0.794000 2.635199
v 0.495851 0.795932 -2.635199
v 0.507272 0.794000 -2.635199
v -0.169923 1.425109 2.635199
v -0.112890 1.523893 2.635199
v -0.169923 1.425109 -2.635199
v -0.112890 1.523893 -2.635199
v 0.495851 1.040724 2.635199
v 0.507272 1.038792 2.635199
v 0.495851 1.040724 -2.635199
v 0.507272 1.038792 -2.635199
v -0.169923 1.669702 2.635199
v -0.112890 1.768486 2.635199
v -0.169923 1.669702 -2.635199
v -0.112890 1.768486 -2.635199
v 0.495851 1.285317 2.635199
v 0.507272 1.283385 2.635199
v 0.495851 1.285317 -2.635199
v 0.507272 1.283385 -2.635199
v -0.169923 1.920937 2.635199
v -0.112890 2.019721 2.635199
v -0.169923 1.920937 -2.635199
v -0.112890 2.019721 -2.635199
v 0.495851 1.536552 2.635199
v 0.507272 1.534621 2.635199
v 0.495851 1.536552 -2.635199
v 0.507272 1.534621 -2.635199
v -0.169923 2.165729 2.635199
v -0.112890 2.264513 2.635199
v -0.169923 2.165729 -2.635199
v -0.112890 2.264513 -2.635199
v 0.495851 1.781344 2.635199
v 0.507272 1.779413 2.635199
v 0.495851 1.781344 -2.635199
v 0.507272 1.779413 -2.635199
v -0.169923 2.410322 2.635199
v -0.112890 2.509106 2.635199
v -0.169923 2.410322 -2.635199
v -0.112890 2.509106 -2.635199
v 0.495851 2.025937 2.635199
v 0.507272 2.024005 2.635199
v 0.495851 2.025937 -2.635199
v 0.507272 2.024005 -2.635199
v -0.169923 2.641696 2.635199
v -0.112890 2.740481 2.635199
v -0.169923 2.641696 -2.635199
v -0.112890 2.740481 -2.635199
v 0.495851 2.257311 2.635199
v 0.507272 2.255380 2.635199
v 0.495851 2.257311 -2.635199
v 0.507272 2.255380 -2.635199
v -0.169923 2.886488 2.635199
v -0.112890 2.985273 2.635199
v -0.169923 2.886488 -2.635199
v -0.112890 2.985273 -2.635199
v 0.495851 2.502104 2.635199
v 0.507272 2.500172 2.635199
v 0.495851 2.502104 -2.635199
v 0.507272 2.500172 -2.635199
v -0.169923 3.131081 2.635199
v -0.112890 3.229866 2.635199
v -0.169923 3.131081 -2.635199
v -0.112890 3.229866 -2.635199
v 0.495851 2.746696 2.635199
v 0.507272 2.744765 2.635199
v 0.495851 2.746696 -2.635199
v 0.507272 2.744765 -2.635199
v -0.169923 3.374156 2.635199
v -0.112890 3.472941 2.635199
v -0.169923 3.374156 -2.635199
v -0.112890 3.472941 -2.635199
v 0.495851 2.989771 2.635199
v 0.507272 2.987840 2.635199
v 0.495851 2.989771 -2.635199
v 0.507272 2.987840 -2.635199
v -0.169923 3.618948 2.635199
v -0.112890 3.717733 2.635199
v -0.169923 3.618948 -2.635199
v -0.112890 3.717733 -2.635199
v 0.495851 3.234563 2.635199
v 0.507272 3.232632 2.635199
v 0.495851 3.234563 -2.635199
v 0.507272 3.232632 -2.635199
v -0.169923 3.863541 2.635199
v -0.112890 3.962326 2.635199
v -0.169923 3.863541 -2.635199
v -0.112890 3.962326 -2.635199
v 0.495851 3.479156 2.635199
v 0.507272 3.477225 2.635199
v 0.495851 3.479156 -2.635199
v 0.507272 3.477225 -2.635199
v -0.169923 4.101860 2.635199
v -0.112890 4.200644 2.635199
v -0.169923 4.101860 -2.635199
v -0.112890 4.200644 -2.635199
v 0.495851 3.717474 2.635199
v 0.507272 3.715543 2.635199
v 0.495851 3.717474 -2.635199
v 0.507272 3.715543 -2.635199
v -0.169923 4.346651 2.635199
v -0.112890 4.445436 2.635199
v -0.169923 4.346651 -2.635199
v -0.112890 4.445436 -2.635199
v 0.495851 3.962266 2.635199
v 0.507272 3.960335 2.635199
v 0.495851 3.962266 -2.635199
v 0.507272 3.960335 -2.635199
v -0.169923 4.591245 2.635199
v -0.112890 4.690029 2.635199
v -0.169923 4.591245 -2.635199
v -0.112890 4.690029 -2.635199
v 0.495851 4.206860 2.635199
v 0.507272 4.204928 2.635199
v 0.495851 4.206860 -2.635199
v 0.507272 4.204928 -2.635199
v -0.169923 4.825866 2.635199
v -0.112890 4.924650 2.635199
v -0.169923 4.825866 -2.635199
v -0.112890 4.924650 -2.635199
v 0.495851 4.441481 2.635199
v 0.507272 4.439549 2.635199
v 0.495851 4.441481 -2.635199
v 0.507272 4.439549 -2.635199
v -0.169923 5.070658 2.635199
v -0.112890 5.169442 2.635199
v -0.169923 5.070658 -2.635199
v -0.112890 5.169442 -2.635199
v 0.495851 4.686273 2.635199
v 0.507272 4.684341 2.635199
v 0.495851 4.686273 -2.635199
v 0.507272 4.684341 -2.635199
v -0.169923 5.315250 2.635199
v -0.112890 5.414035 2.635199
v -0.169923 5.315250 -2.635199
v -0.112890 5.414035 -2.635199
v 0.495851 4.930865 2.635199
v 0.507272 4.928934 2.635199
v 0.495851 4.930865 -2.635199
v 0.507272 4.928934 -2.635199
vt 0.634787 0.740213
vt 0.634787 0.509787
vt 0.634787 0.509787
vt 0.634787 0.740213
vt 0.375000 0.750000
vt 0.625000 0.750000
vt 0.625000 1.000000
vt 0.375000 1.000000
vt 0.375000 0.000000
vt 0.625000 0.000000
vt 0.625000 0.250000
vt 0.375000 0.250000
vt 0.125000 0.500000
vt 0.375000 0.500000
vt 0.125000 0.750000
vt 0.625000 0.500000
vt 0.865213 0.740213
vt 0.875000 0.750000
vt 0.865213 0.509787
vt 0.875000 0.500000
vt 0.865213 0.509787
vt 0.865213 0.740213
vt 0.375000 0.000000
vt 0.625000 0.000000
vt 0.625000 0.250000
vt 0.375000 0.250000
vt 0.625000 0.500000
vt 0.375000 0.500000
vt 0.625000 0.750000
vt 0.375000 0.750000
vt 0.625000 1.000000
vt 0.375000 1.000000
vt 0.125000 0.500000
vt 0.125000 0.750000
vt 0.875000 0.500000
vt 0.875000 0.750000
vt 0.375000 0.000000
vt 0.625000 0.000000
vt 0.625000 0.250000
vt 0.375000 0.250000
vt 0.375000 0.500000
vt 0.625000 0.500000
vt 0.625000 0.750000
vt 0.375000 0.750000
vt 0.125000 0.500000
vt 0.125000 0.750000
vt 0.875000 0.500000
vt 0.875000 0.750000
vt 0.375000 0.000000
vt 0.625000 0.000000
vt 0.625000 0.250000
vt 0.375000 0.250000
vt 0.375000 0.500000
vt 0.625000 0.500000
vt 0.625000 0.750000
vt 0.375000 0.750000
vt 0.125000 0.500000
vt 0.125000 0.750000
vt 0.875000 0.500000
vt 0.875000 0.750000
vt 0.375000 0.250000
vt 0.625000 0.250000
vt 0.625000 0.500000
vt 0.375000 0.500000
vt 0.375000 0.750000
vt 0.625000 0.750000
vt 0.625000 1.000000
vt 0.375000 1.000000
vt 0.125000 0.500000
vt 0.125000 0.750000
vt 0.875000 0.500000
vt 0.875000 0.750000
vt 0.375000 0.500000
vt 0.625000 0.500000
vt 0.625000 0.750000
vt 0.375000 0.750000
vt 0.125000 0.500000
vt 0.125000 0.750000
vt 0.875000 0.500000
vt 0.875000 0.750000
vt 0.375000 0.000000
vt 0.625000 0.000000
vt 0.625000 0.250000
vt 0.375000 0.250000
vt 0.375000 0.500000
vt 0.625000 0.500000
vt 0.625000 0.750000
vt 0.375000 0.750000
vt 0.125000 0.500000
vt 0.125000 0.750000
vt 0.875000 0.500000
vt 0.875000 0.750000
vt 0.375000 0.250000
vt 0.625000 0.250000
vt 0.625000 0.500000
vt 0.375000 0.500000
vt 0.375000 0.750000
vt 0.625000 0.750000
vt 0.625000 1.000000
vt 0.375000 1.000000
vt 0.125000 0.500000
vt 0.125000 0.750000
vt 0.875000 0.500000
vt 0.875000 0.750000
vt 0.375000 0.500000
vt 0.625000 0.500000
vt 0.625000 0.750000
vt 0.375000 0.750000
vt 0.125000 0.500000
vt 0.125000 0.750000
vt 0.875000 0.500000
vt 0.875000 0.750000
vt 0.375000 0.000000
vt 0.625000 0.000000
vt 0.625000 0.250000
vt 0.375000 0.250000
vt 0.375000 0.500000
vt 0.625000 0.500000
vt 0.625000 0.750000
vt 0.375000 0.750000
vt 0.125000 0.500000
vt 0.125000 0.750000
vt 0.875000 0.500000
vt 0.875000 0.750000
vt 0.375000 0.250000
vt 0.625000 0.250000
vt 0.625000 0.500000
vt 0.375000 0.500000
vt 0.375000 0.750000
vt 0.625000 0.750000
vt 0.625000 1.000000
vt 0.375000 1.000000
vt 0.125000 0.500000
vt 0.125000 0.750000
vt 0.875000 0.500000
vt 0.875000 0.750000
vt 0.375000 0.500000
vt 0.625000 0.500000
vt 0.625000 0.750000
vt 0.375000 0.750000
vt 0.125000 0.500000
vt 0.125000 0.750000
vt 0.875000 0.500000
vt 0.875000 0.750000
vt 0.375000 0.000000
vt 0.625000 0.000000
vt 0.625000 0.250000
vt 0.375000 0.250000
vt 0.375000 0.500000
vt 0.625000 0.500000
vt 0.625000 0.750000
vt 0.375000 0.750000
vt 0.125000 0.500000
vt 0.125000 0.750000
vt 0.875000 0.500000
vt 0.875000 0.750000
vt 0.375000 0.250000
vt 0.625000 0.250000
vt 0.625000 0.500000
vt 0.375000 0.500000
vt 0.375000 0.750000
vt 0.625000 0.750000
vt 0.625000 1.000000
vt 0.375000 1.000000
vt 0.125000 0.500000
vt 0.125000 0.750000
vt 0.875000 0.500000
vt 0.875000 0.750000
vt 0.375000 0.500000
vt 0.625000 0.500000
vt 0.625000 0.750000
vt 0.375000 0.750000
vt 0.125000 0.500000
vt 0.125000 0.750000
vt 0.875000 0.500000
vt 0.875000 0.750000
vt 0.375000 0.000000
vt 0.625000 0.000000
vt 0.625000 0.250000
vt 0.375000 0.250000
vt 0.375000 0.500000
vt 0.625000 0.500000
vt 0.625000 0.750000
vt 0.375000 0.750000
vt 0.125000 0.500000
vt 0.125000 0.750000
vt 0.875000 0.500000
vt 0.875000 0.750000
vt 0.375000 0.250000
vt 0.625000 0.250000
vt 0.625000 0.500000
vt 0.375000 0.500000
vt 0.375000 0.750000
vt 0.625000 0.750000
vt 0.625000 1.000000
vt 0.375000 1.000000
vt 0.125000 0.500000
vt 0.125000 0.750000
vt 0.875000 0.500000
vt 0.875000 0.750000
vt 0.375000 0.500000
vt 0.625000 0.500000
vt 0.625000 0.750000
vt 0.375000 0.750000
vt 0.125000 0.500000
vt 0.125000 0.750000
vt 0.875000 0.500000
vt 0.875000 0.750000
vt 0.375000 0.000000
vt 0.625000 0.000000
vt 0.625000 0.250000
vt 0.375000 0.250000
vt 0.375000 0.500000
vt 0.625000 0.500000
vt 0.625000 0.750000
vt 0.375000 0.750000
vt 0.125000 0.500000
vt 0.125000 0.750000
vt 0.875000 0.500000
vt 0.875000 0.750000
vt 0.375000 0.250000
vt 0.625000 0.250000
vt 0.625000 0.500000
vt 0.375000 0.500000
vt 0.375000 0.750000
vt 0.625000 0.750000
vt 0.625000 1.000000
vt 0.375000 1.000000
vt 0.125000 0.500000
vt 0.125000 0.750000
vt 0.875000 0.500000
vt 0.875000 0.750000
vt 0.375000 0.500000
vt 0.625000 0.500000
vt 0.625000 0.750000
vt 0.375000 0.750000
vt 0.125000 0.500000
vt 0.125000 0.750000
vt 0.875000 0.500000
vt 0.875000 0.750000
vt 0.375000 0.000000
vt 0.625000 0.000000
vt 0.625000 0.250000
vt 0.375000 0.250000
vt 0.375000 0.500000
vt 0.625000 0.500000
vt 0.625000 0.750000
vt 0.375000 0.750000
vt 0.125000 0.500000
vt 0.125000 0.750000
vt 0.875000 0.500000
vt 0.875000 0.750000
vn 0.0000 1.0000 0.0000
vn 0.0000 0.0000 1.0000
vn -1.0000 -0.0000 0.0000
vn 0.0000 -1.0000 0.0000
vn 0.0000 0.0000 -1.0000
vn 1.0000 0.0000 0.0000
vn -0.8660 0.5000 0.0000
vn -0.1667 -0.9860 0.0000
vn -0.5000 -0.8660 0.0000
vn 0.6161 0.7877 0.0000
vn -0.1668 -0.9860 0.0000
usemtl Material
s off
f 3/1/1 1/2/1 15/3/1 13/4/1
f 4/5/2 9/6/2 10/7/2 8/8/2
f 8/9/1 10/10/1 12/11/1 6/12/1
f 6/13/3 2/14/3 4/5/3 8/15/3
f 2/14/4 11/16/4 9/6/4 4/5/4
f 6/12/5 12/11/5 11/16/5 2/14/5
f 3/1/6 7/17/6 10/18/6 9/6/6
f 1/2/6 3/1/6 9/6/6 11/16/6
f 7/17/6 5/19/6 12/20/6 10/18/6
f 5/19/6 1/2/6 11/16/6 12/20/6
f 15/3/6 16/21/6 14/22/6 13/4/6
f 5/19/4 7/17/4 14/22/4 16/21/4
f 7/17/5 3/1/5 13/4/5 14/22/5
f 1/2/2 5/19/2 16/21/2 15/3/2
f 17/23/7 18/24/7 20/25/7 19/26/7
f 19/26/5 20/25/5 24/27/5 23/28/5
f 23/28/8 24/27/8 22/29/8 21/30/8
f 21/30/2 22/29/2 18/31/2 17/32/2
f 19/33/9 23/28/9 21/30/9 17/34/9
f 24/27/10 20/35/10 18/36/10 22/29/10
f 25/37/7 26/38/7 28/39/7 27/40/7
f 31/41/8 32/42/8 30/43/8 29/44/8
f 27/45/9 31/41/9 29/44/9 25/46/9
f 32/42/10 28/47/10 26/48/10 30/43/10
f 33/49/7 34/50/7 36/51/7 35/52/7
f 39/53/8 40/54/8 38/55/8 37/56/8
f 35/57/9 39/53/9 37/56/9 33/58/9
f 40/54/10 36/59/10 34/60/10 38/55/10
f 43/61/5 44/62/5 48/63/5 47/64/5
f 45/65/2 46/66/2 42/67/2 41/68/2
f 43/69/9 47/64/9 45/65/9 41/70/9
f 48/63/10 44/71/10 42/72/10 46/66/10
f 55/73/8 56/74/8 54/75/8 53/76/8
f 51/77/9 55/73/9 53/76/9 49/78/9
f 56/74/10 52/79/10 50/80/10 54/75/10
f 57/81/7 58/82/7 60/83/7 59/84/7
f 63/85/8 64/86/8 62/87/8 61/88/8
f 59/89/9 63/85/9 61/88/9 57/90/9
f 64/86/10 60/91/10 58/92/10 62/87/10
f 67/93/5 68/94/5 72/95/5 71/96/5
f 69/97/2 70/98/2 66/99/2 65/100/2
f 67/101/9 71/96/9 69/97/9 65/102/9
f 72/95/10 68/103/10 66/104/10 70/98/10
f 79/105/8 80/106/8 78/107/8 77/108/8
f 75/109/9 79/105/9 77/108/9 73/110/9
f 80/106/10 76/111/10 74/112/10 78/107/10
f 81/113/7 82/114/7 84/115/7 83/116/7
f 87/117/8 88/118/8 86/119/8 85/120/8
f 83/121/9 87/117/9 85/120/9 81/122/9
f 88/118/10 84/123/10 82/124/10 86/119/10
f 91/125/5 92/126/5 96/127/5 95/128/5
f 93/129/2 94/130/2 90/131/2 89/132/2
f 91/133/9 95/128/9 93/129/9 89/134/9
f 96/127/10 92/135/10 90/136/10 94/130/10
f 103/137/8 104/138/8 102/139/8 101/140/8
f 99/141/9 103/137/9 101/140/9 97/142/9
f 104/138/10 100/143/10 98/144/10 102/139/10
f 105/145/7 106/146/7 108/147/7 107/148/7
f 111/149/8 112/150/8 110/151/8 109/152/8
f 107/153/9 111/149/9 109/152/9 105/154/9
f 112/150/10 108/155/10 106/156/10 110/151/10
f 115/157/5 116/158/5 120/159/5 119/160/5
f 117/161/2 118/162/2 114/163/2 113/164/2
f 115/165/9 119/160/9 117/161/9 113/166/9
f 120/159/10 116/167/10 114/168/10 118/162/10
f 127/169/8 128/170/8 126/171/8 125/172/8
f 123/173/9 127/169/9 125/172/9 121/174/9
f 128/170/10 124/175/10 122/176/10 126/171/10
f 129/177/7 130/178/7 132/179/7 131/180/7
f 135/181/8 136/182/8 134/183/8 133/184/8
f 131/185/9 135/181/9 133/184/9 129/186/9
f 136/182/10 132/187/10 130/188/10 134/183/10
f 139/189/5 140/190/5 144/191/5 143/192/5
f 141/193/2 142/194/2 138/195/2 137/196/2
f 139/197/9 143/192/9 141/193/9 137/198/9
f 144/191/10 140/199/10 138/200/10 142/194/10
f 151/201/8 152/202/8 150/203/8 149/204/8
f 147/205/9 151/201/9 149/204/9 145/206/9
f 152/202/10 148/207/10 146/208/10 150/203/10
f 153/209/7 154/210/7 156/211/7 155/212/7
f 159/213/11 160/214/11 158/215/11 157/216/11
f 155/217/9 159/213/9 157/216/9 153/218/9
f 160/214/10 156/219/10 154/220/10 158/215/10
f 163/221/5 164/222/5 168/223/5 167/224/5
f 165/225/2 166/226/2 162/227/2 161/228/2
f 163/229/9 167/224/9 165/225/9 161/230/9
f 168/223/10 164/231/10 162/232/10 166/226/10
f 175/233/8 176/234/8 174/235/8 173/236/8
f 171/237/9 175/233/9 173/236/9 169/238/9
f 176/234/10 172/239/10 170/240/10 174/235/10
f 177/241/7 178/242/7 180/243/7 179/244/7
f 183/245/8 184/246/8 182/247/8 181/248/8
f 179/249/9 183/245/9 181/248/9 177/250/9
f 184/246/10 180/251/10 178/252/10 182/247/10
